<svg xmlns="http://www.w3.org/2000/svg" viewBox="0 0 240 240" fill="none" role="img" aria-label="BMS — Business Management Solutions">
  <defs>
    <linearGradient id="gold" x1="20" y1="16" x2="220" y2="226" gradientUnits="userSpaceOnUse">
      <stop offset="0%" stop-color="#e8cf92" />
      <stop offset="45%" stop-color="#c2a052" />
      <stop offset="100%" stop-color="#9c7a34" />
    </linearGradient>
    <linearGradient id="wood" x1="30" y1="30" x2="210" y2="210" gradientUnits="userSpaceOnUse">
      <stop offset="0%" stop-color="#faf4e6" />
      <stop offset="35%" stop-color="#f0e3c8" />
      <stop offset="70%" stop-color="#e4d2ac" />
      <stop offset="100%" stop-color="#d5bf92" />
    </linearGradient>
    <radialGradient id="sky" cx="42%" cy="30%" r="80%">
      <stop offset="0%" stop-color="#e6f3fd" />
      <stop offset="45%" stop-color="#bcd9f2" />
      <stop offset="80%" stop-color="#8fbde8" />
      <stop offset="100%" stop-color="#6ba2d8" />
    </radialGradient>
    <radialGradient id="ocean" cx="38%" cy="30%" r="82%">
      <stop offset="0%" stop-color="#9adcf5" />
      <stop offset="35%" stop-color="#4fa8dd" />
      <stop offset="70%" stop-color="#2272b8" />
      <stop offset="100%" stop-color="#0d3f7a" />
    </radialGradient>
    <linearGradient id="land" x1="80" y1="110" x2="160" y2="190" gradientUnits="userSpaceOnUse">
      <stop offset="0%" stop-color="#8fca6e" />
      <stop offset="45%" stop-color="#5ba447" />
      <stop offset="100%" stop-color="#2f7a3a" />
    </linearGradient>
    <linearGradient id="landw" x1="95" y1="120" x2="155" y2="185" gradientUnits="userSpaceOnUse">
      <stop offset="0%" stop-color="#d9c28a" />
      <stop offset="100%" stop-color="#a98950" />
    </linearGradient>
    <linearGradient id="eagle" x1="80" y1="60" x2="165" y2="160" gradientUnits="userSpaceOnUse">
      <stop offset="0%" stop-color="#f8ecc8" />
      <stop offset="45%" stop-color="#ddbe7d" />
      <stop offset="100%" stop-color="#ad883e" />
    </linearGradient>
    <linearGradient id="gloss" x1="0" y1="0" x2="0" y2="1">
      <stop offset="0%" stop-color="#ffffff" stop-opacity="0.55" />
      <stop offset="55%" stop-color="#ffffff" stop-opacity="0.12" />
      <stop offset="100%" stop-color="#ffffff" stop-opacity="0" />
    </linearGradient>
    <radialGradient id="sheen" cx="34%" cy="24%" r="55%">
      <stop offset="0%" stop-color="#ffffff" stop-opacity="0.65" />
      <stop offset="45%" stop-color="#ffffff" stop-opacity="0.18" />
      <stop offset="100%" stop-color="#ffffff" stop-opacity="0" />
    </radialGradient>
    <clipPath id="disc">
      <circle cx="120" cy="120" r="82" />
    </clipPath>
    <clipPath id="globe">
      <circle cx="120" cy="152" r="42" />
    </clipPath>
  </defs>
  <circle cx="120" cy="120" r="119" fill="#fdfbf7" />
  <circle cx="120" cy="120" r="117.5" stroke="url(#gold)" stroke-width="2.5" fill="none" />
  <circle cx="120" cy="120" r="99" stroke="url(#wood)" stroke-width="35" fill="none" />
  <circle cx="120" cy="120" r="110" stroke="#c9b284" stroke-width="0.7" opacity="0.5" stroke-dasharray="34 10 55 8" fill="none" />
  <circle cx="120" cy="120" r="94" stroke="#c9b284" stroke-width="0.7" opacity="0.45" stroke-dasharray="22 12 70 7" fill="none" />
  <circle cx="120" cy="120" r="116" stroke="url(#gold)" stroke-width="2.2" fill="none" />
  <circle cx="120" cy="120" r="83.5" stroke="url(#gold)" stroke-width="2.6" fill="none" />
  <circle cx="22" cy="120" r="4" fill="url(#gold)" stroke="#9c7a34" stroke-width="0.8" />
  <circle cx="218" cy="120" r="4" fill="url(#gold)" stroke="#9c7a34" stroke-width="0.8" />
  <circle cx="120" cy="120" r="82" fill="url(#sky)" />
  <g clip-path="url(#disc)">
    <g stroke="#ffffff" stroke-width="7" opacity="0.14" stroke-linecap="round">
      <path d="M 120 118 L 60 58" />
      <path d="M 120 118 L 180 58" />
      <path d="M 120 118 L 120 36" />
    </g>
    <circle cx="120" cy="152" r="42" fill="url(#ocean)" />
    <g clip-path="url(#globe)">
      <g stroke="#2f6b2f" stroke-width="0.4" stroke-opacity="0.5">
        <path d="M90 128 Q100 122 110 126 L114 134 Q108 140 102 146 L94 152 Q88 144 86 136 Z" fill="url(#land)" />
        <path d="M100 158 Q106 155 109 161 Q110 170 105 179 Q100 183 97 176 Q95 166 100 158 Z" fill="url(#land)" />
        <path d="M120 136 Q130 132 137 139 Q140 148 135 159 Q129 167 123 163 Q117 153 118 144 Z" fill="url(#landw)" />
        <path d="M138 126 Q150 121 159 128 Q164 136 159 143 Q151 149 143 144 L139 136 Z" fill="url(#land)" />
      </g>
      <g stroke="#ffffff" stroke-width="0.6" fill="none" opacity="0.3">
        <ellipse cx="120" cy="152" rx="27" ry="42" />
        <ellipse cx="120" cy="152" rx="12" ry="42" />
        <path d="M 78 152 L 162 152" />
      </g>
    </g>
    <circle cx="120" cy="152" r="42" stroke="#bfe6fa" stroke-width="1.3" opacity="0.7" fill="none" />
    <ellipse cx="106" cy="132" rx="24" ry="15" fill="url(#sheen)" />
    <g transform="translate(106 112) scale(1.05)">
      <g stroke="#8a6d33" stroke-width="0.55" stroke-linejoin="round">
        <path d="M -2 1 L -11 12 L -6 9 L -8 16 L -1 7 Z" fill="url(#eagle)" />
        <path d="M -5 2 Q -9 -8 -5 -17 Q 0 -23 5 -17 Q 8 -9 5 1 Q 0 4 -5 2 Z" fill="url(#eagle)" />
        <path d="M -2 -16 L -2 -24 L 3 -28 L 8 -26 L 9 -23 L 4 -22 L 5 -19 Q 1 -16 -2 -16 Z" fill="url(#eagle)" />
        <path d="M 8 -26 L 14 -24 L 9 -23 Z" fill="#c2a052" />
        <circle cx="3.5" cy="-24.5" r="1.1" fill="#1d3564" stroke="none" />
      </g>
    </g>
    <g transform="translate(136 113) scale(-0.95 0.95)">
      <g stroke="#8a6d33" stroke-width="0.55" stroke-linejoin="round">
        <path d="M -2 1 L -11 12 L -6 9 L -8 16 L -1 7 Z" fill="url(#eagle)" />
        <path d="M -5 2 Q -9 -8 -5 -17 Q 0 -23 5 -17 Q 8 -9 5 1 Q 0 4 -5 2 Z" fill="url(#eagle)" />
        <path d="M -2 -16 L -2 -24 L 3 -28 L 8 -26 L 9 -23 L 4 -22 L 5 -19 Q 1 -16 -2 -16 Z" fill="url(#eagle)" />
        <path d="M 8 -26 L 14 -24 L 9 -23 Z" fill="#c2a052" />
        <circle cx="3.5" cy="-24.5" r="1.1" fill="#1d3564" stroke="none" />
      </g>
    </g>
    <ellipse cx="96" cy="72" rx="58" ry="30" fill="url(#gloss)" opacity="0.55" />
  </g>
  <path d="M 22 100 A 98 98 0 0 1 218 100" stroke="url(#gloss)" stroke-width="32" fill="none" opacity="0.5" />
</svg>
